<?xml version="1.0" encoding="UTF-8" standalone="no"?>
<!-- Created with Inkscape (http://www.inkscape.org/) -->

<svg
   width="100mm"
   height="100mm"
   viewBox="0 0 100 100"
   version="1.1"
   id="svg5"
   xmlns="http://www.w3.org/2000/svg"
   xmlns:svg="http://www.w3.org/2000/svg">
  <defs
     id="defs2" />
  <g
     id="layer1">
    <path
       id="rect846"
       style="fill:#ffffff;stroke-width:0.304818"
       d="M 7.5751261,92.428026 C 5.8067701,90.642218 5.80833,87.117479 7.573231,85.355501 L 85.355364,7.5733684 c 1.766552,-1.7723027 5.308375,-1.7954304 7.070935,2.023e-4 1.772053,1.7200598 1.800514,5.2704833 1.15e-4,7.0708833 L 14.645133,92.425735 c -1.76916,1.765058 -5.2931713,1.767431 -7.0700069,0.0023 z" />
    <path
       id="rect846-4"
       style="fill:#ffffff;stroke-width:0.304818"
       d="M 7.5692627,7.5675615 C 9.3550708,5.7992063 12.87981,5.8007657 14.641788,7.5656615 L 92.423923,85.347802 c 1.77232,1.766522 1.795431,5.308376 -2.06e-4,7.070934 -1.720033,1.772076 -5.270482,1.800511 -7.070882,1.11e-4 L 7.5715536,14.637569 C 5.8064953,12.868409 5.8041222,9.3443981 7.5692535,7.5675622 Z" />
  </g>
</svg>
